<?xml version="1.0" encoding="iso-8859-1"?>
<!-- Generator: Adobe Illustrator 19.0.0, SVG Export Plug-In . SVG Version: 6.00 Build 0)  -->
<svg version="1.1" id="Capa_1" xmlns="http://www.w3.org/2000/svg" xmlns:xlink="http://www.w3.org/1999/xlink" x="0px" y="0px"
	 viewBox="0 0 512 512" style="enable-background:new 0 0 512 512;" xml:space="preserve">
<path style="fill:#ABDFEB;" d="M105.67,56.012c24.601,24.601,41.244,81.13,16.643,105.731s-81.13,7.958-105.731-16.643
	S-4.041,84.591,20.56,59.99S81.069,31.411,105.67,56.012z"/>
<path style="fill:#8BCDD8;" d="M111.097,169.375c-9.754-53.933-61.535-93.098-102.131-94.531
	c-13.495,22.793-12.381,50.26,7.615,70.256C37.949,166.467,83.398,181.824,111.097,169.375z"/>
<path style="fill:#ABDFEB;" d="M406.33,56.012c-24.601,24.601-41.244,81.13-16.643,105.731
	c24.601,24.601,81.13,7.958,105.731-16.643c24.601-24.601,20.623-60.509-3.978-85.11S430.931,31.411,406.33,56.012z"/>
<path style="fill:#8BCDD8;" d="M400.903,169.375c9.754-53.933,61.535-93.098,102.13-94.531c13.495,22.793,12.381,50.26-7.615,70.256
	C474.051,166.467,428.602,181.824,400.903,169.375z"/>
<ellipse style="fill:#ABDFEB;" cx="256" cy="244.04" rx="196.34" ry="186.42"/>
<g>
	<path style="fill:#464D59;" d="M165.588,196.685c-4.142,0-7.5-3.358-7.5-7.5v-15.008c0-4.142,3.358-7.5,7.5-7.5s7.5,3.358,7.5,7.5
		v15.008C173.088,193.327,169.731,196.685,165.588,196.685z"/>
	<path style="fill:#464D59;" d="M346.412,196.685c-4.142,0-7.5-3.358-7.5-7.5v-15.008c0-4.142,3.358-7.5,7.5-7.5s7.5,3.358,7.5,7.5
		v15.008C353.912,193.327,350.554,196.685,346.412,196.685z"/>
</g>
<path style="fill:#8BCDD8;" d="M212.03,62.322c-87.266,18.957-152.372,93.12-152.372,181.723
	c0,102.957,87.905,186.42,196.342,186.42c19.952,0,39.204-2.835,57.346-8.087C85.074,329.977,119.169,118.281,212.03,62.322z"/>
<path style="fill:#B9E8EF;" d="M409.201,247.067c-3.993-1.525-7.205-4.522-9.287-8.256c-7.292-13.082-21.262-21.931-37.303-21.931
	c-9.748,0-18.728,3.273-25.912,8.775c-2.706,2.072-6.138,2.964-9.522,2.563c-22.448-2.662-46.36-3.941-71.178-3.941
	c-24.818,0-48.73,1.279-71.178,3.941c-3.384,0.401-6.816-0.491-9.522-2.563c-7.184-5.502-16.164-8.775-25.912-8.775
	c-16.04,0-30.01,8.85-37.303,21.931c-2.081,3.734-5.293,6.731-9.287,8.256c-49.69,18.976-81.141,50.52-81.141,97.301
	c0,85.459,104.919,128.202,234.342,128.202S490.34,429.827,490.34,344.368C490.342,297.586,458.892,266.043,409.201,247.067z"/>
<path style="fill:#464D59;" d="M256,383.302c-12.769,0-24.913-5.531-33.317-15.175c-2.721-3.123-2.396-7.86,0.727-10.582
	c3.124-2.72,7.86-2.396,10.582,0.727c5.555,6.375,13.577,10.03,22.009,10.03c8.432,0,16.454-3.656,22.009-10.03
	c2.722-3.123,7.458-3.447,10.582-0.727c3.123,2.722,3.448,7.46,0.727,10.582C280.913,377.771,268.769,383.302,256,383.302z"/>
<g>
	<circle style="fill:#8BCDD8;" cx="149.39" cy="259.56" r="15.519"/>
	<circle style="fill:#8BCDD8;" cx="362.61" cy="259.56" r="15.519"/>
</g>
<path style="fill:#ABDFEB;" d="M416.18,443.185c-246.851,43.269-311.115-113.303-300.169-158.197
	c0.615-2.522,0.695-5.142,0.379-7.719c-2.455-20.031,5.053-45.274,18.266-57.764c-9.717,3.576-17.779,10.575-22.705,19.548
	c-2.002,3.647-5.171,6.496-9.059,7.978c-49.745,18.972-81.235,50.526-81.235,97.337c0,85.459,104.919,128.202,234.342,128.202
	C317.952,472.57,374.278,462.769,416.18,443.185z"/>
<g>
</g>
<g>
</g>
<g>
</g>
<g>
</g>
<g>
</g>
<g>
</g>
<g>
</g>
<g>
</g>
<g>
</g>
<g>
</g>
<g>
</g>
<g>
</g>
<g>
</g>
<g>
</g>
<g>
</g>
</svg>
